# xmcd
#
# Track frame offsets:
#	150
#	18467
#	49704
#	74622
#	102578
#	121093
#	144437
#	156562
#	169509
#	201686
#	217869
#	230741
#	238165
#	261737
#	286816
#	299850
#
# Disc length: 4209 seconds
#
# Revision: 0
# Processed by: cddbd v1.4PL0 Copyright (c) Steve Scherf et al.
# Submitted via: dBpowerAMP V4.0
#
DISCID=0a106f10
DTITLE=Grateful Dead - Wooden Set
DYEAR=1900
DGENRE=Country
TTITLE0=Silver Threads in Lonely Needle
TTITLE1=Black Peter
TTITLE2=Friend of the Devil
TTITLE3=Uncle John's Band
TTITLE4=She's Mine
TTITLE5=Katie Mae
TTITLE6=I Hear a Voice Callin'
TTITLE7=Don't Ease Me In
TTITLE8=I Know You Rider
TTITLE9=Dire Wolf
TTITLE10=Beat It On Down the Line
TTITLE11=Candyman
TTITLE12=Cumberland Blues
TTITLE13=Deep Elem Blues
TTITLE14=Cold Jordan
TTITLE15=Riple
EXTD=
EXTT0=
EXTT1=
EXTT2=
EXTT3=
EXTT4=
EXTT5=
EXTT6=
EXTT7=
EXTT8=
EXTT9=
EXTT10=
EXTT11=
EXTT12=
EXTT13=
EXTT14=
EXTT15=
PLAYORDER=
